<?xml version="1.0" encoding="UTF-8" standalone="no"?>
<!DOCTYPE svg PUBLIC "-//W3C//DTD SVG 1.1//EN" "http://www.w3.org/Graphics/SVG/1.1/DTD/svg11.dtd"><svg width="100%"
    height="100%" viewBox="0 0 27 22" version="1.1" xmlns="http://www.w3.org/2000/svg"
    xmlns:xlink="http://www.w3.org/1999/xlink" xml:space="preserve" xmlns:serif="http://www.serif.com/"
    style="fill-rule:evenodd;clip-rule:evenodd;stroke-linejoin:round;stroke-miterlimit:2;">
    <rect id="left-sidebar" x="0" y="0" width="27" height="22" style="fill:none;" />
    <g id="left-sidebar1" serif:id="left-sidebar">
        <path
            d="M23.5,2.5l-20,0c-0.552,0 -1,0.448 -1,1l-0,15c-0,0.552 0.448,1 1,1l20,0c0.552,0 1,-0.448 1,-1l0,-15c0,-0.552 -0.448,-1 -1,-1Zm-12,2l11,0l0,13c-0,0 -5.943,0 -11,0l-0,-13Zm-2,-0l-0,13l-5,0c-0,-0 -0,-13 -0,-13l5,-0Z"
            style="fill:#fff;" />
    </g>
</svg>