<svg width="42" height="42" viewBox="0 0 42 42" fill="none" xmlns="http://www.w3.org/2000/svg">
<path d="M0 20C0 8.95431 8.95431 0 20 0C31.0457 0 40 8.95431 40 20C40 31.0457 31.0457 40 20 40C8.95431 40 0 31.0457 0 20Z" fill="#C4C4C4"/>
<path d="M0.375 20C0.375 9.16141 9.16141 0.375 20 0.375C30.8386 0.375 39.625 9.16141 39.625 20C39.625 30.8386 30.8386 39.625 20 39.625C9.16141 39.625 0.375 30.8386 0.375 20Z" stroke="black" stroke-opacity="0.08" stroke-width="0.75"/>
<path d="M35 29.25C31.8244 29.25 29.25 31.8244 29.25 35C29.25 38.1756 31.8244 40.75 35 40.75C38.1756 40.75 40.75 38.1756 40.75 35C40.75 31.8244 38.1756 29.25 35 29.25Z" fill="#17B26A"/>
<path d="M35 29.25C31.8244 29.25 29.25 31.8244 29.25 35C29.25 38.1756 31.8244 40.75 35 40.75C38.1756 40.75 40.75 38.1756 40.75 35C40.75 31.8244 38.1756 29.25 35 29.25Z" stroke="white" stroke-width="1.5"/>
</svg>
