<svg width="20" height="20" viewBox="0 0 20 20" fill="none" xmlns="http://www.w3.org/2000/svg">
<g clip-path="url(#clip0_367_2684)">
<path d="M9.99935 12.5C11.3801 12.5 12.4993 11.3807 12.4993 9.99996C12.4993 8.61925 11.3801 7.49996 9.99935 7.49996C8.61864 7.49996 7.49935 8.61925 7.49935 9.99996C7.49935 11.3807 8.61864 12.5 9.99935 12.5Z" stroke="#717680" stroke-width="1.67" stroke-linecap="round" stroke-linejoin="round"/>
<path d="M15.6054 12.2727C15.5046 12.5012 15.4745 12.7547 15.519 13.0004C15.5636 13.2462 15.6808 13.4729 15.8554 13.6515L15.9009 13.6969C16.0417 13.8376 16.1535 14.0048 16.2297 14.1887C16.306 14.3726 16.3452 14.5698 16.3452 14.7689C16.3452 14.968 16.306 15.1652 16.2297 15.3491C16.1535 15.533 16.0417 15.7002 15.9009 15.8409C15.7601 15.9817 15.593 16.0935 15.4091 16.1697C15.2252 16.246 15.028 16.2852 14.8289 16.2852C14.6298 16.2852 14.4326 16.246 14.2487 16.1697C14.0647 16.0935 13.8976 15.9817 13.7569 15.8409L13.7115 15.7954C13.5329 15.6208 13.3062 15.5036 13.0604 15.459C12.8146 15.4145 12.5612 15.4446 12.3327 15.5454C12.1086 15.6414 11.9175 15.8009 11.7829 16.0042C11.6483 16.2074 11.5761 16.4456 11.5751 16.6894V16.8181C11.5751 17.22 11.4155 17.6054 11.1313 17.8895C10.8472 18.1737 10.4618 18.3333 10.06 18.3333C9.65811 18.3333 9.27273 18.1737 8.98858 17.8895C8.70444 17.6054 8.5448 17.22 8.5448 16.8181V16.75C8.53894 16.4992 8.45777 16.256 8.31186 16.052C8.16594 15.848 7.96203 15.6926 7.72662 15.606C7.49813 15.5052 7.24466 15.4751 6.9989 15.5197C6.75315 15.5642 6.52638 15.6814 6.34783 15.856L6.30238 15.9015C6.16166 16.0423 5.99456 16.1541 5.81062 16.2304C5.62669 16.3066 5.42952 16.3458 5.23041 16.3458C5.0313 16.3458 4.83413 16.3066 4.6502 16.2304C4.46626 16.1541 4.29916 16.0423 4.15844 15.9015C4.01757 15.7608 3.90581 15.5937 3.82956 15.4097C3.75331 15.2258 3.71407 15.0286 3.71407 14.8295C3.71407 14.6304 3.75331 14.4332 3.82956 14.2493C3.90581 14.0654 4.01757 13.8983 4.15844 13.7575L4.20389 13.7121C4.37854 13.5335 4.4957 13.3068 4.54026 13.061C4.58482 12.8153 4.55474 12.5618 4.45389 12.3333C4.35786 12.1092 4.19841 11.9181 3.99516 11.7835C3.79191 11.6489 3.55373 11.5767 3.30996 11.5757H3.18117C2.77932 11.5757 2.39394 11.4161 2.10979 11.1319C1.82565 10.8478 1.66602 10.4624 1.66602 10.0606C1.66602 9.65872 1.82565 9.27334 2.10979 8.98919C2.39394 8.70505 2.77932 8.54541 3.18117 8.54541H3.24935C3.5001 8.53955 3.74329 8.45838 3.9473 8.31247C4.15131 8.16655 4.30671 7.96264 4.39329 7.72723C4.49413 7.49874 4.52422 7.24527 4.47966 6.99951C4.4351 6.75376 4.31794 6.52699 4.14329 6.34844L4.09783 6.30299C3.95696 6.16227 3.8452 5.99517 3.76896 5.81123C3.69271 5.6273 3.65346 5.43013 3.65346 5.23102C3.65346 5.03191 3.69271 4.83474 3.76896 4.65081C3.8452 4.46687 3.95696 4.29977 4.09783 4.15905C4.23855 4.01818 4.40565 3.90642 4.58959 3.83017C4.77353 3.75392 4.97069 3.71468 5.1698 3.71468C5.36892 3.71468 5.56608 3.75392 5.75002 3.83017C5.93395 3.90642 6.10106 4.01818 6.24177 4.15905L6.28723 4.2045C6.46577 4.37915 6.69254 4.49631 6.9383 4.54087C7.18405 4.58543 7.43752 4.55535 7.66602 4.4545H7.72662C7.95069 4.35847 8.14179 4.19902 8.27639 3.99577C8.41099 3.79252 8.48323 3.55434 8.4842 3.31057V3.18178C8.4842 2.77993 8.64383 2.39455 8.92798 2.1104C9.21212 1.82626 9.59751 1.66663 9.99935 1.66663C10.4012 1.66663 10.7866 1.82626 11.0707 2.1104C11.3549 2.39455 11.5145 2.77993 11.5145 3.18178V3.24996C11.5155 3.49374 11.5877 3.73191 11.7223 3.93516C11.8569 4.13841 12.048 4.29787 12.2721 4.3939C12.5006 4.49474 12.754 4.52483 12.9998 4.48027C13.2455 4.43571 13.4723 4.31855 13.6509 4.1439L13.6963 4.09844C13.837 3.95757 14.0041 3.84581 14.1881 3.76957C14.372 3.69332 14.5692 3.65407 14.7683 3.65407C14.9674 3.65407 15.1646 3.69332 15.3485 3.76957C15.5324 3.84581 15.6995 3.95757 15.8403 4.09844C15.9811 4.23916 16.0929 4.40627 16.1691 4.5902C16.2454 4.77414 16.2846 4.9713 16.2846 5.17041C16.2846 5.36953 16.2454 5.56669 16.1691 5.75063C16.0929 5.93456 15.9811 6.10167 15.8403 6.24238L15.7948 6.28784C15.6202 6.46638 15.503 6.69315 15.4584 6.93891C15.4139 7.18466 15.444 7.43813 15.5448 7.66663V7.72723C15.6408 7.9513 15.8003 8.1424 16.0035 8.277C16.2068 8.4116 16.445 8.48384 16.6887 8.48481H16.8175C17.2194 8.48481 17.6048 8.64444 17.8889 8.92859C18.1731 9.21273 18.3327 9.59812 18.3327 9.99996C18.3327 10.4018 18.1731 10.7872 17.8889 11.0713C17.6048 11.3555 17.2194 11.5151 16.8175 11.5151H16.7493C16.5056 11.5161 16.2674 11.5883 16.0641 11.7229C15.8609 11.8575 15.7014 12.0486 15.6054 12.2727Z" stroke="#717680" stroke-width="1.67" stroke-linecap="round" stroke-linejoin="round"/>
</g>
<defs>
<clipPath id="clip0_367_2684">
<rect width="20" height="20" fill="white"/>
</clipPath>
</defs>
</svg>
