<svg width="19" height="10" viewBox="0 0 19 10" fill="none" xmlns="http://www.w3.org/2000/svg">
<path d="M2.27699 9.30271C1.9304 9.30271 1.61222 9.21748 1.32244 9.04703C1.03267 8.87373 0.802557 8.64362 0.632102 8.35669C0.461648 8.06692 0.376421 7.74873 0.376421 7.40214C0.376421 7.05271 0.461648 6.73453 0.632102 6.4476C0.802557 6.15783 1.03267 5.92629 1.32244 5.753C1.61222 5.5797 1.9304 5.49305 2.27699 5.49305H3.21449V3.98453H2.27699C1.9304 3.98453 1.61222 3.8993 1.32244 3.72885C1.03267 3.55839 0.802557 3.3297 0.632102 3.04277C0.461648 2.753 0.376421 2.43339 0.376421 2.08396C0.376421 1.73453 0.461648 1.41635 0.632102 1.12942C0.802557 0.842484 1.03267 0.613791 1.32244 0.443337C1.61222 0.270041 1.9304 0.183393 2.27699 0.183393C2.62642 0.183393 2.9446 0.270041 3.23153 0.443337C3.52131 0.613791 3.75142 0.842484 3.92188 1.12942C4.09517 1.41635 4.18182 1.73453 4.18182 2.08396V3.01294H5.6946V2.08396C5.6946 1.73453 5.77983 1.41635 5.95028 1.12942C6.12074 0.842484 6.34943 0.613791 6.63636 0.443337C6.92614 0.270041 7.24574 0.183393 7.59517 0.183393C7.9446 0.183393 8.26278 0.270041 8.54972 0.443337C8.83665 0.613791 9.06534 0.842484 9.2358 1.12942C9.40625 1.41635 9.49148 1.73453 9.49148 2.08396C9.49148 2.43339 9.40625 2.753 9.2358 3.04277C9.06534 3.3297 8.83665 3.55839 8.54972 3.72885C8.26278 3.8993 7.9446 3.98453 7.59517 3.98453H6.66193V5.49305H7.59517C7.9446 5.49305 8.26278 5.5797 8.54972 5.753C8.83665 5.92629 9.06534 6.15783 9.2358 6.4476C9.40625 6.73453 9.49148 7.05271 9.49148 7.40214C9.49148 7.74873 9.40625 8.06692 9.2358 8.35669C9.06534 8.64362 8.83665 8.87373 8.54972 9.04703C8.26278 9.21748 7.9446 9.30271 7.59517 9.30271C7.24574 9.30271 6.92614 9.21748 6.63636 9.04703C6.34943 8.87373 6.12074 8.64362 5.95028 8.35669C5.77983 8.06692 5.6946 7.74873 5.6946 7.40214V6.46464H4.18182V7.40214C4.18182 7.74873 4.09517 8.06692 3.92188 8.35669C3.75142 8.64362 3.52131 8.87373 3.23153 9.04703C2.9446 9.21748 2.62642 9.30271 2.27699 9.30271ZM2.27699 8.33112C2.45028 8.33112 2.60653 8.28993 2.74574 8.20754C2.88778 8.12516 3.00142 8.01294 3.08665 7.87089C3.17188 7.72885 3.21449 7.5726 3.21449 7.40214V6.46464H2.27699C2.10653 6.46464 1.95028 6.50726 1.80824 6.59248C1.66619 6.67487 1.55256 6.78709 1.46733 6.92913C1.38494 7.07118 1.34375 7.22885 1.34375 7.40214C1.34375 7.5726 1.38494 7.72885 1.46733 7.87089C1.55256 8.01294 1.66619 8.12516 1.80824 8.20754C1.95028 8.28993 2.10653 8.33112 2.27699 8.33112ZM2.27699 3.01294H3.21449V2.08396C3.21449 1.91067 3.17188 1.75442 3.08665 1.61521C3.00142 1.47317 2.88778 1.36095 2.74574 1.27856C2.60653 1.19618 2.45028 1.15498 2.27699 1.15498C2.10653 1.15498 1.95028 1.19618 1.80824 1.27856C1.66619 1.36095 1.55256 1.47317 1.46733 1.61521C1.38494 1.75442 1.34375 1.91067 1.34375 2.08396C1.34375 2.25726 1.38494 2.41493 1.46733 2.55697C1.55256 2.69618 1.66619 2.80697 1.80824 2.88936C1.95028 2.97175 2.10653 3.01294 2.27699 3.01294ZM6.66193 3.01294H7.59517C7.76847 3.01294 7.92472 2.97175 8.06392 2.88936C8.20313 2.80697 8.31392 2.69618 8.39631 2.55697C8.48153 2.41493 8.52415 2.25726 8.52415 2.08396C8.52415 1.91067 8.48153 1.75442 8.39631 1.61521C8.31392 1.47317 8.20313 1.36095 8.06392 1.27856C7.92472 1.19618 7.76847 1.15498 7.59517 1.15498C7.42188 1.15498 7.2642 1.19618 7.12216 1.27856C6.98011 1.36095 6.8679 1.47317 6.78551 1.61521C6.70312 1.75442 6.66193 1.91067 6.66193 2.08396V3.01294ZM7.59517 8.33112C7.76847 8.33112 7.92472 8.28993 8.06392 8.20754C8.20313 8.12516 8.31392 8.01294 8.39631 7.87089C8.48153 7.72885 8.52415 7.5726 8.52415 7.40214C8.52415 7.22885 8.48153 7.07118 8.39631 6.92913C8.31392 6.78709 8.20313 6.67487 8.06392 6.59248C7.92472 6.50726 7.76847 6.46464 7.59517 6.46464H6.66193V7.40214C6.66193 7.5726 6.70312 7.72885 6.78551 7.87089C6.8679 8.01294 6.98011 8.12516 7.12216 8.20754C7.2642 8.28993 7.42188 8.33112 7.59517 8.33112ZM4.18182 5.49305H5.6946V3.98453H4.18182V5.49305ZM11.8299 9.10669V0.379416H13.1467V4.54703H13.2532L16.9137 0.379416H18.5714L15.0515 4.30839L18.5842 9.10669H16.9989L14.1779 5.20754L13.1467 6.3922V9.10669H11.8299Z" fill="#717680"/>
</svg>