<svg width="20" height="20" viewBox="0 0 20 20" fill="none" xmlns="http://www.w3.org/2000/svg">
<path d="M11.7428 5.60177H16.7042C17.0977 5.60177 17.2944 5.60177 17.4095 5.68449C17.5099 5.75667 17.5752 5.86776 17.5896 5.99056C17.606 6.13131 17.5105 6.30328 17.3194 6.64722L16.1353 8.77854C16.066 8.90327 16.0314 8.96564 16.0178 9.03169C16.0058 9.09014 16.0058 9.15043 16.0178 9.20889C16.0314 9.27494 16.066 9.3373 16.1353 9.46204L17.3194 11.5934C17.5105 11.9373 17.606 12.1093 17.5896 12.25C17.5752 12.3728 17.5099 12.4839 17.4095 12.5561C17.2944 12.6388 17.0977 12.6388 16.7042 12.6388H10.5113C10.0187 12.6388 9.77235 12.6388 9.58418 12.5429C9.41867 12.4586 9.2841 12.324 9.19977 12.1585C9.1039 11.9704 9.1039 11.724 9.1039 11.2314V9.12029M6.02519 17.9166L2.50667 3.84251M3.82616 9.12029H10.3354C10.828 9.12029 11.0743 9.12029 11.2625 9.02441C11.428 8.94008 11.5626 8.80552 11.6469 8.64C11.7428 8.45184 11.7428 8.20552 11.7428 7.71288V3.49066C11.7428 2.99802 11.7428 2.7517 11.6469 2.56354C11.5626 2.39803 11.428 2.26346 11.2625 2.17913C11.0743 2.08325 10.828 2.08325 10.3354 2.08325H3.86942C3.25498 2.08325 2.94776 2.08325 2.73763 2.21057C2.55346 2.32215 2.41662 2.49741 2.35304 2.70315C2.28049 2.93788 2.35501 3.23593 2.50404 3.83202L3.82616 9.12029Z" stroke="#717680" stroke-width="1.67" stroke-linecap="round" stroke-linejoin="round"/>
</svg>
