<svg width="20" height="20" viewBox="0 0 20 20" fill="none" xmlns="http://www.w3.org/2000/svg">
<g clip-path="url(#clip0_367_2653)">
<path d="M7.6129 7.61353L4.10679 4.10742M4.10679 15.8925L7.63932 12.36M12.3836 12.3864L15.8897 15.8925M15.8897 4.10742L12.3566 7.64047M18.3327 9.99996C18.3327 14.6023 14.6017 18.3333 9.99935 18.3333C5.39698 18.3333 1.66602 14.6023 1.66602 9.99996C1.66602 5.39759 5.39698 1.66663 9.99935 1.66663C14.6017 1.66663 18.3327 5.39759 18.3327 9.99996ZM13.3327 9.99996C13.3327 11.8409 11.8403 13.3333 9.99935 13.3333C8.1584 13.3333 6.66602 11.8409 6.66602 9.99996C6.66602 8.15901 8.1584 6.66663 9.99935 6.66663C11.8403 6.66663 13.3327 8.15901 13.3327 9.99996Z" stroke="#717680" stroke-width="1.67" stroke-linecap="round" stroke-linejoin="round"/>
</g>
<defs>
<clipPath id="clip0_367_2653">
<rect width="20" height="20" fill="white"/>
</clipPath>
</defs>
</svg>
