<svg width="142" height="32" viewBox="0 0 142 32" fill="none" xmlns="http://www.w3.org/2000/svg">
<g clip-path="url(#clip0_356_3257)">
<path d="M0 12.8C0 8.31958 0 6.07937 0.871948 4.36808C1.63893 2.86278 2.86278 1.63893 4.36808 0.871948C6.07937 0 8.31958 0 12.8 0H19.2C23.6804 0 25.9206 0 27.6319 0.871948C29.1372 1.63893 30.3611 2.86278 31.1281 4.36808C32 6.07937 32 8.31958 32 12.8V19.2C32 23.6804 32 25.9206 31.1281 27.6319C30.3611 29.1372 29.1372 30.3611 27.6319 31.1281C25.9206 32 23.6804 32 19.2 32H12.8C8.31958 32 6.07937 32 4.36808 31.1281C2.86278 30.3611 1.63893 29.1372 0.871948 27.6319C0 25.9206 0 23.6804 0 19.2V12.8Z" fill="white"/>
<path d="M0 12.8C0 8.31958 0 6.07937 0.871948 4.36808C1.63893 2.86278 2.86278 1.63893 4.36808 0.871948C6.07937 0 8.31958 0 12.8 0H19.2C23.6804 0 25.9206 0 27.6319 0.871948C29.1372 1.63893 30.3611 2.86278 31.1281 4.36808C32 6.07937 32 8.31958 32 12.8V19.2C32 23.6804 32 25.9206 31.1281 27.6319C30.3611 29.1372 29.1372 30.3611 27.6319 31.1281C25.9206 32 23.6804 32 19.2 32H12.8C8.31958 32 6.07937 32 4.36808 31.1281C2.86278 30.3611 1.63893 29.1372 0.871948 27.6319C0 25.9206 0 23.6804 0 19.2V12.8Z" fill="url(#paint0_linear_356_3257)"/>
<path fill-rule="evenodd" clip-rule="evenodd" d="M15.9998 2.03882C8.28923 2.03882 2.03861 8.28945 2.03861 16C2.03861 23.7105 8.28923 29.9612 15.9998 29.9612C23.7103 29.9612 29.9609 23.7105 29.9609 16C29.9609 8.28945 23.7103 2.03882 15.9998 2.03882ZM1.96094 16C1.96094 8.24655 8.24634 1.96115 15.9998 1.96115C23.7532 1.96115 30.0386 8.24655 30.0386 16C30.0386 23.7534 23.7532 30.0388 15.9998 30.0388C8.24634 30.0388 1.96094 23.7534 1.96094 16Z" fill="#D0D5DD"/>
<path fill-rule="evenodd" clip-rule="evenodd" d="M16 12.0779C13.8338 12.0779 12.0777 13.834 12.0777 16.0002C12.0777 18.1665 13.8338 19.9225 16 19.9225C18.1662 19.9225 19.9223 18.1665 19.9223 16.0002C19.9223 13.834 18.1662 12.0779 16 12.0779ZM12 16.0002C12 13.7911 13.7909 12.0002 16 12.0002C18.2091 12.0002 20 13.7911 20 16.0002C20 18.2094 18.2091 20.0002 16 20.0002C13.7909 20.0002 12 18.2094 12 16.0002Z" fill="#D0D5DD"/>
<path fill-rule="evenodd" clip-rule="evenodd" d="M15.9995 13.3201C14.5196 13.3201 13.3199 14.5198 13.3199 15.9997C13.3199 17.4796 14.5196 18.6793 15.9995 18.6793C17.4794 18.6793 18.6791 17.4796 18.6791 15.9997C18.6791 14.5198 17.4794 13.3201 15.9995 13.3201ZM13.2422 15.9997C13.2422 14.4769 14.4767 13.2424 15.9995 13.2424C17.5223 13.2424 18.7568 14.4769 18.7568 15.9997C18.7568 17.5225 17.5223 18.757 15.9995 18.757C14.4767 18.757 13.2422 17.5225 13.2422 15.9997Z" fill="#D0D5DD"/>
<path d="M15.9609 0H16.0386V32H15.9609V0Z" fill="#D0D5DD"/>
<path d="M32 15.9609L32 16.0386L-3.39506e-09 16.0386L0 15.9609L32 15.9609Z" fill="#D0D5DD"/>
<path d="M26.6016 0H26.6792V32H26.6016V0Z" fill="#D0D5DD"/>
<path d="M10.6406 0H10.7183V32H10.6406V0Z" fill="#D0D5DD"/>
<path d="M21.2812 0H21.3589V32H21.2812V0Z" fill="#D0D5DD"/>
<path d="M5.32031 0H5.39798V32H5.32031V0Z" fill="#D0D5DD"/>
<path d="M32 26.6016L32 26.6792L-3.39506e-09 26.6792L0 26.6016L32 26.6016Z" fill="#D0D5DD"/>
<path d="M32 10.6406L32 10.7183L-3.39506e-09 10.7183L0 10.6406L32 10.6406Z" fill="#D0D5DD"/>
<path d="M32 21.2812L32 21.3589L-3.39506e-09 21.3589L0 21.2812L32 21.2812Z" fill="#D0D5DD"/>
<path d="M32 5.32031L32 5.39798L-3.39506e-09 5.39798L0 5.32031L32 5.32031Z" fill="#D0D5DD"/>
<path fill-rule="evenodd" clip-rule="evenodd" d="M17.1538 8C17.8359 8 18.3897 8.5537 18.3897 9.23565C18.3897 9.91764 17.8359 10.4713 17.1538 10.4713H14.5598L8.66246 20.6853L9.95813 22.9292C10.299 23.5198 10.0965 24.2761 9.50574 24.6171C8.91534 24.9581 8.15904 24.7554 7.81782 24.1648L6.16548 21.3031C5.94484 20.9208 5.94484 20.4498 6.16548 20.0675L12.7762 8.61784C12.9968 8.23552 13.4049 8 13.8461 8H17.1538Z" fill="#004AE0"/>
<path fill-rule="evenodd" clip-rule="evenodd" d="M16.5694 24.165C16.2282 24.7556 15.4719 24.9581 14.8815 24.617C14.2907 24.276 14.0882 23.5196 14.4294 22.929L19.3884 14.3425C19.7296 13.752 20.486 13.5494 21.0764 13.8905C21.6671 14.2315 21.8696 14.9879 21.5284 15.5785L16.5694 24.165Z" fill="#004AE0"/>
<path fill-rule="evenodd" clip-rule="evenodd" d="M23.1828 24.1648C22.8416 24.7554 22.0852 24.9581 21.4948 24.6171C20.9041 24.2761 20.7016 23.5198 21.0425 22.9292L22.6945 20.0675C23.0357 19.4769 23.792 19.2742 24.3824 19.6152C24.9731 19.9562 25.1757 20.7125 24.8348 21.3031L23.1828 24.1648Z" fill="#004AE0"/>
</g>
<path d="M0.1 12.8C0.1 10.5581 0.100078 8.88276 0.208661 7.55376C0.31715 6.22593 0.533455 5.25268 0.961049 4.41348C1.71845 2.92699 2.92699 1.71845 4.41348 0.961049C5.25268 0.533455 6.22593 0.31715 7.55376 0.208661C8.88276 0.100078 10.5581 0.1 12.8 0.1H19.2C21.4419 0.1 23.1172 0.100078 24.4462 0.208661C25.7741 0.31715 26.7473 0.533455 27.5865 0.961049C29.073 1.71845 30.2816 2.92699 31.039 4.41348C31.4665 5.25268 31.6828 6.22593 31.7913 7.55376C31.8999 8.88276 31.9 10.5581 31.9 12.8V19.2C31.9 21.4419 31.8999 23.1172 31.7913 24.4462C31.6828 25.7741 31.4665 26.7473 31.039 27.5865C30.2816 29.073 29.073 30.2816 27.5865 31.039C26.7473 31.4665 25.7741 31.6828 24.4462 31.7913C23.1172 31.8999 21.4419 31.9 19.2 31.9H12.8C10.5581 31.9 8.88276 31.8999 7.55376 31.7913C6.22593 31.6828 5.25268 31.4665 4.41348 31.039C2.92699 30.2816 1.71845 29.073 0.961049 27.5865C0.533455 26.7473 0.31715 25.7741 0.208661 24.4462C0.100078 23.1172 0.1 21.4419 0.1 19.2V12.8Z" stroke="#D0D5DD" stroke-width="0.2"/>
<path d="M43.0114 22V10.3636H50.8523V12.392H45.4716V15.1648H50.4489V17.1932H45.4716V19.9716H50.875V22H43.0114ZM55.2685 10.3636V22H52.8082V10.3636H55.2685ZM65.0085 14.125C64.929 13.8485 64.8172 13.6042 64.6733 13.392C64.5294 13.1761 64.3532 12.9943 64.1449 12.8466C63.9403 12.6951 63.7055 12.5795 63.4403 12.5C63.179 12.4205 62.8892 12.3807 62.571 12.3807C61.9763 12.3807 61.4536 12.5284 61.0028 12.8239C60.5559 13.1193 60.2074 13.5492 59.9574 14.1136C59.7074 14.6742 59.5824 15.3598 59.5824 16.1705C59.5824 16.9811 59.7055 17.6705 59.9517 18.2386C60.1979 18.8068 60.5464 19.2405 60.9972 19.5398C61.4479 19.8352 61.9801 19.983 62.5938 19.983C63.1506 19.983 63.6259 19.8845 64.0199 19.6875C64.4176 19.4867 64.7206 19.2045 64.929 18.8409C65.1411 18.4773 65.2472 18.0473 65.2472 17.5511L65.7472 17.625H62.7472V15.7727H67.6165V17.2386C67.6165 18.2614 67.4006 19.1402 66.9688 19.875C66.5369 20.6061 65.9422 21.1705 65.1847 21.5682C64.4271 21.9621 63.5597 22.1591 62.5824 22.1591C61.4915 22.1591 60.5331 21.9186 59.7074 21.4375C58.8816 20.9527 58.2377 20.2652 57.7756 19.375C57.3172 18.4811 57.0881 17.4205 57.0881 16.1932C57.0881 15.25 57.2244 14.4091 57.4972 13.6705C57.7737 12.928 58.16 12.2992 58.6562 11.7841C59.1525 11.2689 59.7301 10.8769 60.3892 10.608C61.0483 10.339 61.7623 10.2045 62.5312 10.2045C63.1903 10.2045 63.804 10.3011 64.3722 10.4943C64.9403 10.6837 65.4441 10.9527 65.8835 11.3011C66.3267 11.6496 66.6884 12.0644 66.9688 12.5455C67.2491 13.0227 67.429 13.5492 67.5085 14.125H65.0085ZM69.4645 22V10.3636H77.3054V12.392H71.9247V15.1648H76.902V17.1932H71.9247V19.9716H77.3281V22H69.4645ZM88.9943 10.3636V22H86.8693L81.8068 14.6761H81.7216V22H79.2614V10.3636H81.4205L86.4432 17.6818H86.5455V10.3636H88.9943ZM97.3395 13.7102C97.294 13.2519 97.099 12.8958 96.7543 12.642C96.4096 12.3883 95.9418 12.2614 95.3509 12.2614C94.9493 12.2614 94.6103 12.3182 94.3338 12.4318C94.0573 12.5417 93.8452 12.6951 93.6974 12.892C93.5535 13.089 93.4815 13.3125 93.4815 13.5625C93.474 13.7708 93.5175 13.9527 93.6122 14.108C93.7107 14.2633 93.8452 14.3977 94.0156 14.5114C94.1861 14.6212 94.383 14.7178 94.6065 14.8011C94.83 14.8807 95.0687 14.9489 95.3224 15.0057L96.3679 15.2557C96.8755 15.3693 97.3414 15.5208 97.7656 15.7102C98.1899 15.8996 98.5573 16.1326 98.8679 16.4091C99.1785 16.6856 99.419 17.0114 99.5895 17.3864C99.7637 17.7614 99.8527 18.1913 99.8565 18.6761C99.8527 19.3883 99.6709 20.0057 99.3111 20.5284C98.955 21.0473 98.4399 21.4508 97.7656 21.7386C97.0952 22.0227 96.2865 22.1648 95.3395 22.1648C94.4001 22.1648 93.5819 22.0208 92.8849 21.733C92.1918 21.4451 91.6501 21.0189 91.2599 20.4545C90.8736 19.8864 90.6709 19.1837 90.652 18.3466H93.0327C93.0592 18.7367 93.1709 19.0625 93.3679 19.3239C93.5687 19.5814 93.8357 19.7765 94.169 19.9091C94.5062 20.0379 94.8868 20.1023 95.3111 20.1023C95.7277 20.1023 96.0895 20.0417 96.3963 19.9205C96.7069 19.7992 96.9474 19.6307 97.1179 19.4148C97.2884 19.1989 97.3736 18.9508 97.3736 18.6705C97.3736 18.4091 97.2959 18.1894 97.1406 18.0114C96.9891 17.8333 96.7656 17.6818 96.4702 17.5568C96.1785 17.4318 95.8205 17.3182 95.3963 17.2159L94.1293 16.8977C93.1482 16.6591 92.3736 16.286 91.8054 15.7784C91.2372 15.2708 90.955 14.5871 90.9588 13.7273C90.955 13.0227 91.1425 12.4072 91.5213 11.8807C91.9039 11.3542 92.4285 10.9432 93.0952 10.6477C93.7618 10.3523 94.5194 10.2045 95.3679 10.2045C96.2315 10.2045 96.9853 10.3523 97.6293 10.6477C98.277 10.9432 98.7808 11.3542 99.1406 11.8807C99.5005 12.4072 99.6861 13.017 99.6974 13.7102H97.3395ZM101.511 22V10.3636H106.102C106.985 10.3636 107.737 10.5322 108.358 10.8693C108.979 11.2027 109.453 11.6667 109.778 12.2614C110.108 12.8523 110.273 13.5341 110.273 14.3068C110.273 15.0795 110.106 15.7614 109.773 16.3523C109.439 16.9432 108.956 17.4034 108.324 17.733C107.695 18.0625 106.934 18.2273 106.04 18.2273H103.114V16.2557H105.642C106.116 16.2557 106.506 16.1742 106.812 16.0114C107.123 15.8447 107.354 15.6155 107.506 15.3239C107.661 15.0284 107.739 14.6894 107.739 14.3068C107.739 13.9205 107.661 13.5833 107.506 13.2955C107.354 13.0038 107.123 12.7784 106.812 12.6193C106.502 12.4564 106.108 12.375 105.631 12.375H103.972V22H101.511ZM112.533 22H109.896L113.913 10.3636H117.084L121.095 22H118.459L115.544 13.0227H115.453L112.533 22ZM112.368 17.4261H118.595V19.3466H112.368V17.4261ZM132.216 14.4375H129.727C129.682 14.1155 129.589 13.8295 129.449 13.5795C129.309 13.3258 129.129 13.1098 128.909 12.9318C128.689 12.7538 128.436 12.6174 128.148 12.5227C127.864 12.428 127.555 12.3807 127.222 12.3807C126.619 12.3807 126.095 12.5303 125.648 12.8295C125.201 13.125 124.854 13.5568 124.608 14.125C124.362 14.6894 124.239 15.375 124.239 16.1818C124.239 17.0114 124.362 17.7083 124.608 18.2727C124.858 18.8371 125.206 19.2633 125.653 19.5511C126.1 19.839 126.617 19.983 127.205 19.983C127.534 19.983 127.839 19.9394 128.119 19.8523C128.403 19.7652 128.655 19.6383 128.875 19.4716C129.095 19.3011 129.277 19.0947 129.42 18.8523C129.568 18.6098 129.67 18.3333 129.727 18.0227L132.216 18.0341C132.152 18.5682 131.991 19.0833 131.733 19.5795C131.479 20.072 131.136 20.5133 130.705 20.9034C130.277 21.2898 129.765 21.5966 129.17 21.8239C128.58 22.0473 127.911 22.1591 127.165 22.1591C126.127 22.1591 125.199 21.9242 124.381 21.4545C123.566 20.9848 122.922 20.3049 122.449 19.4148C121.979 18.5246 121.744 17.447 121.744 16.1818C121.744 14.9129 121.983 13.8333 122.46 12.9432C122.938 12.053 123.585 11.375 124.403 10.9091C125.222 10.4394 126.142 10.2045 127.165 10.2045C127.839 10.2045 128.464 10.2992 129.04 10.4886C129.619 10.678 130.133 10.9545 130.58 11.3182C131.027 11.678 131.39 12.1193 131.67 12.642C131.955 13.1648 132.136 13.7633 132.216 14.4375ZM133.98 22V10.3636H141.821V12.392H136.44V15.1648H141.418V17.1932H136.44V19.9716H141.844V22H133.98Z" fill="black"/>
<defs>
<linearGradient id="paint0_linear_356_3257" x1="16" y1="0" x2="16" y2="32" gradientUnits="userSpaceOnUse">
<stop stop-color="white"/>
<stop offset="1" stop-color="#D0D5DD"/>
</linearGradient>
<clipPath id="clip0_356_3257">
<path d="M0 12.8C0 8.31958 0 6.07937 0.871948 4.36808C1.63893 2.86278 2.86278 1.63893 4.36808 0.871948C6.07937 0 8.31958 0 12.8 0H19.2C23.6804 0 25.9206 0 27.6319 0.871948C29.1372 1.63893 30.3611 2.86278 31.1281 4.36808C32 6.07937 32 8.31958 32 12.8V19.2C32 23.6804 32 25.9206 31.1281 27.6319C30.3611 29.1372 29.1372 30.3611 27.6319 31.1281C25.9206 32 23.6804 32 19.2 32H12.8C8.31958 32 6.07937 32 4.36808 31.1281C2.86278 30.3611 1.63893 29.1372 0.871948 27.6319C0 25.9206 0 23.6804 0 19.2V12.8Z" fill="white"/>
</clipPath>
</defs>
</svg>
