<svg width="20" height="20" viewBox="0 0 20 20" fill="none" xmlns="http://www.w3.org/2000/svg">
<path d="M10 9.99992H10.0042M14.1667 9.99992H14.1708M5.83333 9.99992H5.8375M4.33333 5.83325H15.6667C16.6001 5.83325 17.0668 5.83325 17.4233 6.01491C17.7369 6.1747 17.9919 6.42966 18.1517 6.74327C18.3333 7.09979 18.3333 7.5665 18.3333 8.49992V11.4999C18.3333 12.4333 18.3333 12.9001 18.1517 13.2566C17.9919 13.5702 17.7369 13.8251 17.4233 13.9849C17.0668 14.1666 16.6001 14.1666 15.6667 14.1666H4.33333C3.39991 14.1666 2.9332 14.1666 2.57668 13.9849C2.26308 13.8251 2.00811 13.5702 1.84832 13.2566C1.66666 12.9001 1.66666 12.4333 1.66666 11.4999V8.49992C1.66666 7.5665 1.66666 7.09979 1.84832 6.74327C2.00811 6.42966 2.26308 6.1747 2.57668 6.01491C2.9332 5.83325 3.39991 5.83325 4.33333 5.83325ZM10.2083 9.99992C10.2083 10.115 10.1151 10.2083 10 10.2083C9.88494 10.2083 9.79166 10.115 9.79166 9.99992C9.79166 9.88486 9.88494 9.79159 10 9.79159C10.1151 9.79159 10.2083 9.88486 10.2083 9.99992ZM14.375 9.99992C14.375 10.115 14.2817 10.2083 14.1667 10.2083C14.0516 10.2083 13.9583 10.115 13.9583 9.99992C13.9583 9.88486 14.0516 9.79159 14.1667 9.79159C14.2817 9.79159 14.375 9.88486 14.375 9.99992ZM6.04166 9.99992C6.04166 10.115 5.94839 10.2083 5.83333 10.2083C5.71827 10.2083 5.625 10.115 5.625 9.99992C5.625 9.88486 5.71827 9.79159 5.83333 9.79159C5.94839 9.79159 6.04166 9.88486 6.04166 9.99992Z" stroke="#717680" stroke-width="1.67" stroke-linecap="round" stroke-linejoin="round"/>
</svg>
