<svg width="20" height="20" viewBox="0 0 20 20" fill="none" xmlns="http://www.w3.org/2000/svg">
<g clip-path="url(#clip0_249_296)">
<path d="M3.33335 18.1813C3.8355 18.3334 4.51374 18.3334 5.66666 18.3334H14.3333C15.4863 18.3334 16.1645 18.3334 16.6666 18.1813M3.33335 18.1813C3.22568 18.1487 3.12611 18.109 3.03169 18.0609C2.56128 17.8212 2.17883 17.4388 1.93915 16.9684C1.66666 16.4336 1.66666 15.7335 1.66666 14.3334V5.66675C1.66666 4.26662 1.66666 3.56655 1.93915 3.03177C2.17883 2.56137 2.56128 2.17892 3.03169 1.93923C3.56647 1.66675 4.26653 1.66675 5.66666 1.66675H14.3333C15.7335 1.66675 16.4335 1.66675 16.9683 1.93923C17.4387 2.17892 17.8212 2.56137 18.0608 3.03177C18.3333 3.56655 18.3333 4.26662 18.3333 5.66675V14.3334C18.3333 15.7335 18.3333 16.4336 18.0608 16.9684C17.8212 17.4388 17.4387 17.8212 16.9683 18.0609C16.8739 18.109 16.7743 18.1487 16.6666 18.1813M3.33335 18.1813C3.33362 17.5068 3.33767 17.15 3.39738 16.8498C3.6604 15.5275 4.69406 14.4938 6.01636 14.2308C6.33836 14.1667 6.72557 14.1667 7.5 14.1667H12.5C13.2744 14.1667 13.6616 14.1667 13.9836 14.2308C15.3059 14.4938 16.3396 15.5275 16.6026 16.8498C16.6623 17.15 16.6664 17.5068 16.6666 18.1813M13.3333 7.91675C13.3333 9.7577 11.8409 11.2501 10 11.2501C8.15905 11.2501 6.66666 9.7577 6.66666 7.91675C6.66666 6.0758 8.15905 4.58341 10 4.58341C11.8409 4.58341 13.3333 6.0758 13.3333 7.91675Z" stroke="#717680" stroke-width="1.67" stroke-linecap="round" stroke-linejoin="round"/>
</g>
<defs>
<clipPath id="clip0_249_296">
<rect width="20" height="20" fill="white"/>
</clipPath>
</defs>
</svg>
